<?xml version="1.0" encoding="utf-8"?>
<!-- Generator: Adobe Illustrator 28.0.0, SVG Export Plug-In . SVG Version: 6.00 Build 0)  -->
<svg version="1.1" id="Capa_1" xmlns="http://www.w3.org/2000/svg" xmlns:xlink="http://www.w3.org/1999/xlink" x="0px" y="0px"
	 viewBox="0 0 457.4 478.7" style="enable-background:new 0 0 457.4 478.7;" xml:space="preserve">
<style type="text/css">
	.st0{fill:#FFFFFF;}
	.st1{fill:#BB89FF;}
	.st2{fill:#6B4C2C;}
	.st3{fill:#A17D58;}
	.st4{fill:#E3CEC1;}
	.st5{fill:#F1ECE4;}
	.st6{fill:#E4D5C2;}
	.st7{fill:#FDFCFC;}
	.st8{fill:#FDFCFB;}
	.st9{fill:#EBE4DC;}
	.st10{fill:#FBFAFA;}
	.st11{fill:#FCFBFB;}
	.st12{fill:#FCFCFC;}
	.st13{fill:#FCF8F7;}
	.st14{fill:#FBFAF9;}
	.st15{fill:#FCF9F7;}
	.st16{fill:#B5A093;}
	.st17{fill:#FAF8F6;}
	.st18{fill:#FDFAF8;}
	.st19{fill:#D5C6C3;}
	.st20{fill:#ECE5E4;}
	.st21{fill:#FCF9F9;}
	.st22{fill:#FDFDFC;}
	.st23{fill:#EDE5DE;}
	.st24{fill:#EFE7E0;}
	.st25{fill:#ECE5DE;}
	.st26{fill:none;stroke:#FFFFFF;stroke-width:1.878;stroke-linecap:round;stroke-linejoin:round;stroke-miterlimit:10;}
	.st27{fill:#C59752;}
</style>
<g>
	<g>
		<path class="st0" d="M113.2,360.4c0,0.9,0.1,1.8,0.3,2.6c0.1,0.8,0.5,1.2,1,1.2c0.3,0,0.6,0.1,0.7,0.3c0.2,0.2,0.2,0.4,0.2,0.6
			s-0.1,0.4-0.3,0.6c-0.2,0.2-0.4,0.3-0.7,0.3H106c-0.3,0-0.6-0.1-0.7-0.3c-0.2-0.2-0.2-0.4-0.2-0.6s0.1-0.4,0.2-0.6
			c0.2-0.2,0.4-0.3,0.7-0.3c0.3,0,0.5-0.1,0.7-0.4c0.1-0.3,0.3-0.6,0.3-1.1c0.1-0.4,0.1-0.9,0.2-1.4c0-0.5,0-1,0-1.5v-30.5
			c0-0.9-0.1-1.8-0.2-2.6c-0.1-0.8-0.5-1.3-1-1.3c-0.3,0-0.6-0.1-0.7-0.3c-0.2-0.2-0.2-0.4-0.2-0.6s0.1-0.4,0.2-0.6
			c0.2-0.2,0.4-0.3,0.7-0.3h7.2h3.7c2.2,0,4.3,0.1,6.1,0.3c1.8,0.2,3.4,0.7,4.7,1.3c1.3,0.6,2.3,1.5,3.1,2.7
			c0.7,1.2,1.1,2.7,1.1,4.5c0,2-0.5,3.7-1.4,5c-0.9,1.4-2.2,2.5-3.9,3.4c-1.7,0.9-3.6,1.5-5.9,1.9s-4.8,0.6-7.4,0.7L113.2,360.4
			L113.2,360.4z M113.2,324.5v17.8c4-0.2,7.1-1.2,9.1-2.9c2.1-1.7,3.1-4.1,3.1-7.2c0-1.5-0.2-2.8-0.7-3.8s-1.1-1.8-1.9-2.4
			s-1.7-1-2.7-1.2s-2.1-0.4-3.3-0.4h-3.6V324.5z"/>
		<path class="st0" d="M159.9,364.1c0.3,0,0.6,0.1,0.7,0.3c0.2,0.2,0.2,0.4,0.2,0.7c0,0.2-0.1,0.5-0.3,0.7s-0.4,0.3-0.7,0.3h-6.1
			c-0.3,0-0.5-0.1-0.7-0.3c-0.2-0.2-0.3-0.4-0.3-0.7v-3.7c-0.2,0.3-0.5,0.8-1,1.3s-1,1.1-1.7,1.7s-1.6,1-2.5,1.4
			c-1,0.4-2.1,0.6-3.3,0.6s-2.2-0.2-2.9-0.6s-1.3-0.9-1.7-1.6c-0.4-0.6-0.6-1.4-0.7-2.1c-0.1-0.8-0.2-1.5-0.2-2.3v-16.6
			c0-0.2-0.1-0.5-0.2-0.7c-0.1-0.2-0.3-0.4-0.4-0.6c-0.2-0.2-0.4-0.3-0.6-0.4c-0.4-0.2-0.6-0.3-0.8-0.6c-0.1-0.2-0.2-0.4-0.1-0.6
			c0.1-0.2,0.3-0.4,0.8-0.7c0.6-0.3,1.2-0.6,1.8-0.8c0.6-0.3,1.2-0.5,1.7-0.7s1-0.4,1.3-0.6c0.4-0.1,0.6-0.2,0.7-0.3
			c0.6-0.2,0.9-0.3,1-0.1c0.1,0.2,0.2,0.6,0.2,1.1v21.5c0,0.5,0,1,0.1,1.5c0,0.5,0.1,0.9,0.3,1.3s0.4,0.7,0.8,0.9
			c0.4,0.2,0.9,0.3,1.6,0.3c0.9,0,1.6-0.2,2.3-0.5c0.6-0.3,1.2-0.7,1.7-1.1s0.9-0.9,1.1-1.3c0.3-0.5,0.5-0.8,0.7-1.2v-16.5
			c0-0.2-0.1-0.5-0.2-0.7c-0.1-0.2-0.3-0.4-0.4-0.6c-0.2-0.2-0.4-0.3-0.6-0.4c-0.4-0.2-0.6-0.3-0.8-0.6c-0.1-0.2-0.2-0.4-0.1-0.6
			c0.1-0.2,0.3-0.4,0.8-0.7c1.2-0.6,2.4-1.1,3.5-1.6s1.8-0.8,2.1-0.8c0.7-0.2,1.2-0.3,1.4-0.2c0.2,0.1,0.3,0.5,0.3,1.2v21.2
			c0,1,0.1,1.8,0.2,2.3c0.1,0.6,0.2,1.1,0.4,1.5C159.5,363.9,159.7,364.1,159.9,364.1z"/>
		<path class="st0" d="M176.2,364.2c0.3,0,0.6,0.1,0.7,0.3c0.2,0.2,0.2,0.4,0.2,0.6s-0.1,0.4-0.3,0.6s-0.4,0.3-0.7,0.3h-8.4
			c-0.3,0-0.6-0.1-0.7-0.3c-0.2-0.2-0.2-0.4-0.2-0.6s0.1-0.4,0.2-0.6c0.2-0.2,0.4-0.3,0.7-0.3s0.6-0.3,0.7-1
			c0.1-0.6,0.3-1.4,0.3-2.2c0.1-0.9,0.1-2,0.1-3.2v-30.2c0-0.2-0.1-0.5-0.2-0.7c-0.1-0.2-0.3-0.4-0.4-0.5c-0.2-0.2-0.4-0.3-0.6-0.5
			c-0.4-0.2-0.6-0.4-0.8-0.6c-0.1-0.2-0.2-0.4-0.1-0.6c0.1-0.2,0.3-0.4,0.8-0.7c1.2-0.6,2.3-1.1,3.4-1.5c1.1-0.4,1.8-0.6,2.1-0.7
			c0.4-0.1,0.7-0.2,0.9-0.3c0.2-0.1,0.4-0.1,0.5-0.1s0.2,0.2,0.2,0.4c0,0.2,0.1,0.6,0.1,1.1v4.6l0.1,31c0,0.5,0,1,0,1.6
			s0,1.2,0.1,1.8s0.2,1.1,0.4,1.5C175.6,364,175.8,364.2,176.2,364.2z"/>
		<path class="st0" d="M192.7,348.8c1.4,0.6,2.8,1.2,4.3,1.9c1.5,0.6,2.8,1.3,3.9,2c1.2,0.7,2.1,1.6,2.8,2.5c0.7,1,1.1,2.1,1.1,3.3
			c0,1.6-0.4,2.9-1.1,3.9c-0.7,1-1.6,1.8-2.6,2.4c-1.1,0.6-2.2,1-3.5,1.2s-2.5,0.3-3.6,0.3c-1,0-2.2-0.1-3.4-0.4
			c-1.3-0.3-2.4-0.7-3.6-1.3c-1.1-0.6-2-1.4-2.8-2.3c-0.7-0.9-1.1-2-1.1-3.2c0-0.8,0.2-1.6,0.5-2.2s0.7-1.2,1.2-1.6s1-0.7,1.6-0.7
			c0.6-0.1,1.2,0,1.8,0.3s1.1,0.7,1.3,1.1s0.4,0.9,0.4,1.4s-0.1,1-0.4,1.4c-0.2,0.5-0.6,0.9-1,1.3c-0.5,0.5-0.7,1.1-0.6,1.7
			c0.1,0.6,0.5,1.1,1.1,1.5c0.6,0.5,1.3,0.8,2.2,1.1s1.8,0.5,2.7,0.5c1.6,0,2.9-0.3,4-1.1c1-0.7,1.7-1.5,1.9-2.5s0-2-0.7-3.2
			c-0.7-1.1-2-2.1-3.8-2.9c-1-0.4-2.1-0.9-3.4-1.5c-1.3-0.6-2.6-1.2-3.8-2s-2.2-1.7-3.1-2.8c-0.9-1.1-1.3-2.3-1.3-3.7
			c0-2.5,0.8-4.5,2.5-6.1c1.7-1.5,4.2-2.3,7.7-2.3c1.6,0,3,0.2,4.2,0.7c1.2,0.4,2.2,1,3.1,1.6c0.8,0.6,1.4,1.4,1.9,2.1
			c0.4,0.8,0.6,1.5,0.6,2.2c0,1-0.1,1.8-0.4,2.4c-0.3,0.6-0.6,1.1-1.1,1.5c-0.4,0.4-0.9,0.6-1.4,0.7s-1,0-1.5-0.2
			c-1.1-0.4-1.7-1.1-1.9-2.2c-0.2-1,0.2-2.1,1.3-3.2c0.5-0.5,0.8-1,0.9-1.5c0.1-0.5,0-1-0.4-1.5s-1-0.9-1.9-1.2
			c-0.9-0.3-2-0.5-3.5-0.5c-1.9,0-3.3,0.5-4.2,1.4s-1.4,2-1.4,3.2s0.3,2.4,1,3.6C190.3,347.4,191.3,348.2,192.7,348.8z"/>
		<path class="st0" d="M221.8,336.9c0.8,0,1.8,0.2,3.1,0.5c1.2,0.4,2.4,1.1,3.5,2.1c1.1,1.1,2.1,2.6,2.9,4.5s1.2,4.5,1.2,7.7v0.1
			c0,3.2-0.4,5.7-1.2,7.6s-1.8,3.4-2.9,4.4c-1.1,1-2.3,1.7-3.5,2s-2.2,0.5-3.1,0.5c-0.8,0-1.8-0.2-3.1-0.5c-1.2-0.3-2.4-1-3.5-2
			s-2.1-2.5-2.9-4.4c-0.8-1.9-1.2-4.4-1.2-7.6v-0.1c0-3.2,0.4-5.8,1.2-7.7c0.8-1.9,1.8-3.4,2.9-4.5c1.1-1.1,2.3-1.8,3.5-2.1
			C219.9,337.1,220.9,336.9,221.8,336.9z M226.4,352c0-1.7,0-3.4-0.1-5.1s-0.2-3.2-0.6-4.6c-0.3-1.3-0.8-2.4-1.4-3.3
			c-0.6-0.8-1.5-1.3-2.6-1.3s-2,0.4-2.6,1.3c-0.6,0.8-1.1,1.9-1.4,3.3c-0.3,1.3-0.5,2.8-0.6,4.5s-0.1,3.4-0.1,5v0.1
			c0,1.7,0,3.4,0.1,5s0.2,3.1,0.6,4.4c0.3,1.3,0.8,2.3,1.4,3.1c0.6,0.8,1.5,1.2,2.6,1.2s2-0.4,2.6-1.2c0.6-0.8,1.1-1.8,1.4-3.1
			c0.3-1.3,0.5-2.7,0.6-4.4C226.4,355.3,226.4,353.7,226.4,352z"/>
	</g>
</g>
<g>
	<g>
		<path class="st0" d="M89.1,379.5c-1.1-0.3-2.2-0.9-3.2-1.9s-1.8-2.2-2.2-3.7c-0.4-1.5-0.4-3,0-4.7s1.4-3.3,3.1-5
			c2.3-2.3,3.7-4.7,4.2-7.1c0.5-2.5,0.2-4.8-0.9-6.9s-3-3.8-5.6-5.2c-2.6-1.4-5.9-2-9.9-2c-4.5,0-8.1,1.6-10.8,4.8
			c-2.7,3.2-4.7,7.1-6.2,11.9s-2.4,9.9-2.8,15.5c-0.4,5.5-0.6,10.7-0.6,15.4c0,5.6,0.2,11,0.6,16.2c0.4,5.2,1.3,9.7,2.8,13.7
			c1.5,3.9,3.5,7.1,6.2,9.5s6.3,3.5,10.8,3.5c4.7,0,8.7-1,11.9-3.1c3.2-2.1,5.8-4.5,7.7-7.4c1.9-2.8,3.3-5.7,4.1-8.6
			c0.8-2.9,1.2-5.1,1.2-6.7c0-0.5,0.1-1,0.4-1.4s0.6-0.6,1.1-0.6c0.3,0,0.5,0.1,0.8,0.4s0.4,0.8,0.4,1.6c0,2.6-0.5,5.6-1.6,9
			s-2.7,6.5-5,9.5c-2.2,3-5.1,5.5-8.6,7.6s-7.6,3.1-12.5,3.1c-5.5,0-10.5-1.2-14.8-3.5s-7.9-5.5-10.9-9.6c-3-4.1-5.2-9-6.7-14.6
			c-1.5-5.7-2.3-11.9-2.3-18.7c0-6.8,0.6-13.2,1.8-19.2s3.2-11.2,6-15.7s6.4-8,10.8-10.6s9.8-3.9,16.1-3.9c4.2,0,8,0.6,11.4,1.8
			c3.4,1.2,6.4,2.9,8.7,5c2.4,2.2,4.2,4.8,5.5,7.9s2,6.5,2,10.3c0,5.7-1.3,9.6-3.9,11.7C95.7,380,92.7,380.5,89.1,379.5z"/>
		<path class="st0" d="M128.9,371.6c1.8,0,4.1,0.4,6.7,1.2c2.7,0.8,5.2,2.3,7.7,4.7c2.5,2.4,4.6,5.7,6.3,9.9c1.8,4.3,2.7,9.9,2.7,17
			v0.3c0,7-0.9,12.6-2.7,16.7c-1.8,4.2-3.9,7.4-6.3,9.6c-2.5,2.2-5,3.7-7.7,4.4c-2.7,0.7-4.9,1-6.7,1s-4.1-0.3-6.7-1
			c-2.7-0.7-5.2-2.1-7.7-4.4c-2.5-2.2-4.6-5.4-6.3-9.6c-1.8-4.2-2.7-9.8-2.7-16.7v-0.3c0-7.1,0.9-12.8,2.7-17
			c1.8-4.3,3.9-7.6,6.3-9.9c2.5-2.4,5-3.9,7.7-4.7C124.8,372,127.1,371.6,128.9,371.6z M139.1,404.7c0-3.8-0.1-7.6-0.2-11.3
			c-0.1-3.7-0.5-7.1-1.2-10s-1.7-5.4-3.1-7.2c-1.4-1.9-3.3-2.8-5.7-2.8c-2.5,0-4.4,0.9-5.7,2.8c-1.4,1.9-2.4,4.3-3.1,7.2
			c-0.7,3-1.1,6.3-1.2,9.9c-0.1,3.7-0.2,7.4-0.2,11.1v0.3c0,3.7,0.1,7.4,0.2,11s0.5,6.8,1.2,9.6c0.7,2.8,1.7,5.1,3.1,6.8
			c1.4,1.7,3.3,2.6,5.7,2.6c2.5,0,4.4-0.9,5.7-2.6c1.4-1.7,2.4-4,3.1-6.8c0.7-2.8,1.1-6,1.2-9.6S139.1,408.4,139.1,404.7z"/>
		<path class="st0" d="M173.8,397.8c3.1,1.4,6.2,2.7,9.5,4.1c3.2,1.4,6.1,2.9,8.6,4.5s4.6,3.5,6.3,5.6c1.6,2.1,2.5,4.5,2.5,7.4
			c0,3.5-0.8,6.4-2.3,8.6s-3.5,4-5.8,5.2c-2.3,1.3-4.9,2.1-7.7,2.6s-5.4,0.7-7.9,0.7c-2.3,0-4.8-0.3-7.6-1c-2.8-0.6-5.4-1.6-7.8-2.9
			c-2.5-1.3-4.5-3-6.1-5s-2.5-4.3-2.5-6.9c0-1.8,0.3-3.4,1-4.8s1.6-2.6,2.7-3.5c1.1-0.9,2.3-1.5,3.6-1.6c1.3-0.2,2.7,0,4,0.7
			c1.4,0.6,2.3,1.4,2.9,2.4c0.5,1,0.8,2,0.8,3s-0.3,2.1-0.8,3.1s-1.3,2-2.2,2.9c-1.2,1.2-1.6,2.4-1.3,3.7c0.3,1.3,1.1,2.4,2.5,3.4
			c1.3,1,2.9,1.8,4.8,2.5c1.9,0.7,3.9,1,6,1c3.5,0,6.4-0.8,8.7-2.3s3.7-3.4,4.2-5.6s0.1-4.5-1.4-6.9c-1.5-2.5-4.3-4.6-8.4-6.4
			c-2.1-0.9-4.6-2-7.5-3.2s-5.7-2.7-8.3-4.5s-4.9-3.8-6.8-6.1s-2.9-5.1-2.9-8.2c0-5.5,1.8-10,5.4-13.3c3.6-3.4,9.3-5,16.9-5
			c3.5,0,6.6,0.5,9.3,1.4c2.7,1,4.9,2.1,6.7,3.5s3.2,3,4.1,4.7c0.9,1.7,1.4,3.4,1.4,4.9c0,2.2-0.3,4-0.9,5.4
			c-0.6,1.4-1.4,2.5-2.3,3.3c-1,0.8-2,1.2-3.1,1.4c-1.1,0.2-2.2,0-3.2-0.4c-2.4-0.9-3.8-2.5-4.2-4.8c-0.5-2.3,0.5-4.6,2.9-6.9
			c1.1-1.1,1.7-2.2,2-3.4c0.2-1.2-0.1-2.3-0.9-3.3c-0.8-1-2.2-1.9-4.1-2.6c-1.9-0.7-4.4-1-7.6-1c-4.2,0-7.2,1-9.2,3s-3,4.3-3.1,7
			s0.7,5.3,2.2,8C168.5,394.5,170.8,396.5,173.8,397.8z"/>
		<path class="st0" d="M287.2,431.5c0.8,0,1.4,0.2,1.7,0.6c0.3,0.4,0.5,0.9,0.5,1.4s-0.2,1-0.6,1.4s-0.9,0.6-1.6,0.6h-17.3
			c-0.7,0-1.3-0.2-1.6-0.6c-0.4-0.4-0.5-0.9-0.5-1.4s0.2-1,0.5-1.4s0.9-0.6,1.7-0.6c0.5,0,1-0.3,1.3-0.8s0.6-1.2,0.8-2.1
			c0.2-0.9,0.4-1.8,0.4-2.9s0.1-2.1,0.1-3.1v-37.4c0-1.1,0-2.1-0.1-3.1s-0.3-1.9-0.7-2.7c-0.4-0.8-1-1.4-1.8-1.9
			c-0.9-0.5-2-0.7-3.5-0.7c-1.6,0-3.1,0.3-4.4,0.8s-2.5,1.2-3.5,2s-1.9,1.6-2.6,2.5c-0.7,0.9-1.3,1.7-1.6,2.5v38.1c0,1,0,2,0.1,3.1
			c0,1.1,0.2,2.1,0.3,2.9c0.2,0.9,0.5,1.6,0.8,2.1c0.4,0.5,0.8,0.8,1.4,0.8c0.7,0,1.3,0.2,1.6,0.6c0.4,0.4,0.5,0.9,0.5,1.4
			s-0.2,1-0.6,1.4s-0.9,0.6-1.6,0.6h-17.4c-0.7,0-1.3-0.2-1.6-0.6c-0.4-0.4-0.5-0.9-0.5-1.4s0.2-1,0.5-1.4c0.4-0.4,0.9-0.6,1.6-0.6
			c0.5,0,1-0.3,1.4-0.8s0.6-1.2,0.8-2.1s0.3-1.8,0.4-2.9c0.1-1.1,0.1-2.1,0.1-3.1v-37.4c0-1.1,0-2.1-0.1-3.1s-0.3-1.9-0.7-2.7
			c-0.4-0.8-1-1.4-1.8-1.9c-0.9-0.5-2-0.7-3.5-0.7c-1.7,0-3.2,0.3-4.6,0.8c-1.3,0.5-2.5,1.2-3.5,2s-1.8,1.7-2.5,2.6
			s-1.2,1.7-1.7,2.5v38c0,1,0,2,0.1,3.1c0,1.1,0.2,2.1,0.4,2.9c0.2,0.9,0.5,1.6,0.9,2.1s0.8,0.8,1.4,0.8c0.7,0,1.3,0.2,1.6,0.6
			c0.4,0.4,0.5,0.9,0.5,1.4s-0.2,1-0.6,1.4c-0.4,0.4-0.9,0.6-1.6,0.6H208c-0.7,0-1.3-0.2-1.6-0.6c-0.4-0.4-0.5-0.9-0.5-1.4
			s0.2-1,0.5-1.4c0.4-0.4,0.9-0.6,1.6-0.6c0.5,0,1-0.3,1.3-0.8s0.6-1.2,0.8-2.1s0.4-1.8,0.4-2.9s0.1-2.1,0.1-3.1v-37.2
			c0-0.5-0.1-1-0.4-1.5c-0.3-0.5-0.6-0.9-1-1.2c-0.4-0.4-0.8-0.7-1.2-1c-0.8-0.4-1.4-0.8-1.8-1.2c-0.3-0.5-0.3-0.9-0.2-1.4
			s0.7-1,1.8-1.5c1.4-0.6,2.7-1.2,4-1.8c1.3-0.6,2.5-1.1,3.7-1.5c1.1-0.4,2.1-0.7,2.9-1s1.4-0.5,1.6-0.5c1.5-0.5,2.5-0.8,3-0.8
			s0.7,1,0.7,3.1v6c0.5-0.8,1.3-1.8,2.4-2.9c1-1.1,2.3-2.2,3.8-3.3c1.5-1.1,3.3-2,5.3-2.7s4.3-1.1,6.9-1.1c4.4,0,7.4,1,9,3.1
			s2.6,4.5,2.9,7.2c0.5-0.8,1.3-1.8,2.3-3c1-1.2,2.3-2.3,3.8-3.4s3.3-2,5.4-2.8c2-0.8,4.4-1.2,7-1.2c2.7,0,4.9,0.4,6.5,1.3
			s2.8,2,3.7,3.3c0.9,1.4,1.4,2.9,1.6,4.6s0.3,3.3,0.3,5v37.4c0,1,0,2,0.1,3.1c0,1.1,0.2,2.1,0.4,2.9c0.2,0.9,0.5,1.6,0.8,2.1
			C286.3,431.3,286.7,431.5,287.2,431.5z"/>
		<path class="st0" d="M314,431.5c0.7,0,1.3,0.2,1.6,0.6c0.4,0.4,0.5,0.9,0.5,1.4s-0.2,1-0.6,1.4s-0.9,0.6-1.6,0.6h-18.5
			c-0.7,0-1.3-0.2-1.6-0.6c-0.4-0.4-0.5-0.9-0.5-1.4s0.2-1,0.5-1.4c0.4-0.4,0.9-0.6,1.6-0.6c1,0,1.7-0.9,2.2-2.6s0.7-3.5,0.7-5.4
			v-38.7c0-0.5-0.2-1-0.5-1.4s-0.7-0.8-1-1.2c-0.5-0.4-1-0.7-1.5-1.1c-0.8-0.4-1.4-0.8-1.8-1.2c-0.3-0.5-0.3-0.9-0.2-1.4
			c0.1-0.5,0.7-1,1.8-1.5c2.7-1.3,5.3-2.4,7.7-3.3c2.4-0.9,3.9-1.5,4.6-1.6c0.8-0.3,1.4-0.5,1.8-0.6s0.7-0.2,1-0.1
			c0.2,0.1,0.4,0.4,0.4,0.8c0,0.5,0.1,1.2,0.1,2.3V424c0.1,1.8,0.4,3.5,0.9,5.1C312.3,430.7,313,431.5,314,431.5z M304,368.2
			c-2,0-3.7-0.7-5.2-2.1s-2.2-3.2-2.2-5.2c0-2.1,0.7-3.8,2.2-5.2c1.5-1.4,3.2-2.1,5.2-2.1c2.1,0,3.8,0.7,5.2,2.1
			c1.4,1.4,2.1,3.2,2.1,5.2c0,2.1-0.7,3.8-2.1,5.2C307.8,367.5,306.1,368.2,304,368.2z"/>
		<path class="st0" d="M367.7,414.1c0.7,0,1.1,0.4,1.1,1.1c0,2.1-0.5,4.4-1.4,6.9c-1,2.5-2.3,4.8-4.2,6.9c-1.8,2.1-4.1,3.9-6.8,5.3
			c-2.7,1.4-5.9,2.1-9.4,2.1c-4.5,0-8.5-0.8-11.8-2.4s-6-3.8-8.2-6.7c-2.1-2.9-3.7-6.5-4.7-10.7s-1.5-8.9-1.5-14.1
			c0-4.4,0.7-8.6,2.1-12.3c1.4-3.8,3.3-7,5.7-9.7c2.4-2.7,5.1-4.9,8.2-6.4s6.5-2.3,10-2.3c3.7,0,6.9,0.5,9.7,1.5
			c2.7,1,5,2.3,6.8,3.9s3.2,3.5,4.1,5.6s1.4,4.2,1.4,6.4c0,2.5-0.5,4.5-1.6,6.2s-3.1,2.5-6,2.5c-0.9,0-1.9-0.2-2.9-0.6
			s-1.9-1.1-2.6-2s-1-2.2-1.1-3.7c0-1.5,0.5-3.5,1.6-5.9c0.5-1.2,0.9-2.5,1.1-3.9c0.2-1.5,0-2.8-0.6-3.9c-0.6-1.2-1.7-2.2-3.2-3
			s-3.7-1.2-6.5-1.2c-3.3,0-5.7,1-7.4,3c-1.7,2-2.9,4.5-3.5,7.5s-1,6.3-1.1,9.8c0,3.5-0.1,6.8-0.1,9.8c0,2.7,0.1,5.8,0.3,9.1
			c0.2,3.4,0.7,6.5,1.5,9.5s2,5.5,3.7,7.6c1.6,2,3.9,3.1,6.8,3.1c3.4,0,6.4-0.6,8.8-1.8c2.5-1.2,4.5-2.7,6.1-4.4
			c1.6-1.8,2.8-3.7,3.5-5.8c0.8-2.1,1.2-4,1.2-5.7C366.6,414.5,367,414.1,367.7,414.1z"/>
		<path class="st0" d="M394.1,371.6c1.8,0,4.1,0.4,6.7,1.2c2.7,0.8,5.2,2.3,7.7,4.7c2.5,2.4,4.6,5.7,6.3,9.9c1.8,4.3,2.7,9.9,2.7,17
			v0.3c0,7-0.9,12.6-2.7,16.7c-1.8,4.2-3.9,7.4-6.3,9.6c-2.5,2.2-5,3.7-7.7,4.4c-2.7,0.7-4.9,1-6.7,1c-1.8,0-4.1-0.3-6.7-1
			c-2.7-0.7-5.2-2.1-7.7-4.4c-2.5-2.2-4.6-5.4-6.3-9.6c-1.8-4.2-2.7-9.8-2.7-16.7v-0.3c0-7.1,0.9-12.8,2.7-17
			c1.8-4.3,3.9-7.6,6.3-9.9c2.5-2.4,5-3.9,7.7-4.7C390,372,392.3,371.6,394.1,371.6z M404.3,404.7c0-3.8-0.1-7.6-0.2-11.3
			c-0.1-3.7-0.5-7.1-1.2-10s-1.7-5.4-3.1-7.2c-1.4-1.9-3.3-2.8-5.7-2.8c-2.5,0-4.4,0.9-5.7,2.8c-1.4,1.9-2.4,4.3-3.1,7.2
			c-0.7,3-1.1,6.3-1.2,9.9c-0.1,3.7-0.2,7.4-0.2,11.1v0.3c0,3.7,0.1,7.4,0.2,11s0.5,6.8,1.2,9.6c0.7,2.8,1.7,5.1,3.1,6.8
			c1.4,1.7,3.3,2.6,5.7,2.6c2.5,0,4.4-0.9,5.7-2.6c1.4-1.7,2.4-4,3.1-6.8s1.1-6,1.2-9.6C404.2,412.1,404.3,408.4,404.3,404.7z"/>
	</g>
</g>
<path class="st1" d="M243.5,344.7c0,6.2,3.8,11.2,8.6,11.2c-4.7,0-8.6,5-8.6,11.2c0-6.2-3.8-11.2-8.6-11.2
	C239.7,355.9,243.5,350.9,243.5,344.7L243.5,344.7z"/>
<g>
	<g>
		<path class="st0" d="M219.9,95.6c33.1-2.3,64.2,13.7,80.3,42.7c22.1,39.8,10.2,88.6-28.9,111.9c5.4,1.1,8.5,1.5,11,6.8
			c0.4,0.9,0.6,3.8,1.1,4.4c1.1,1.1,9.1,2.6,11.8,6.3c2.1,2.8,3.2,11.7,3.2,15.2c0,2.7,0.7,4.4-2.1,5.7c-3.5,1.5-16.6,3-21.1,3.6
			c-23.4,2.9-51.6,2.8-75.3,1.9c-9.7-0.4-36.4-2.6-44.4-6.8c-0.5-0.3-1.3-0.9-1.5-1.5c-0.1-0.7,1.6-12.6,1.9-13.9
			c1.4-5.8,5.6-6.4,10.5-8.9c0.6-0.3,2.8-0.6,3.2-1c0.6-0.6,1.3-5,2.1-6.3c2.3-4.1,7.1-4.7,11.4-5.2c-35.5-21-49.2-61.7-35-100.6
			C159.1,120.2,188.1,97.8,219.9,95.6z M222.5,96.6c-74.8,3.7-107.6,101.8-47,147.3c26.3,19.8,75.1,20.2,101.9,1
			C342.7,197.8,303.4,92.6,222.5,96.6z M272.7,252.3c-0.4,0-8,1.4-8.8,1.6c-1.9,0.5-4.3,2.2-6.3,2.8c2,0.6,18.1-2.1,18.2-3.2
			C275.1,252.9,273.6,252.3,272.7,252.3z M179.6,252.6c-0.2,0.1-1,0.7-1.5,0.8c-0.4,1.6,15.9,3.7,17.5,3.2
			C193,254.7,182.5,252,179.6,252.6z M175.4,254.9c-4.9,1.2,8,4.4,8.8,4.5c18.6,3.5,71.3,3.8,89.2-1c0.8-0.2,8.7-2.5,5.2-3.6
			c-0.5-0.1-7.9,2.3-9.4,2.6c-21.3,3.7-64.1,3.8-85.3,0C182.4,257.2,175.8,254.8,175.4,254.9z M280.2,260.1
			c-1.1,0.7-0.8,1.6-0.8,2.8C282.2,265.5,281.9,259.8,280.2,260.1z M172.5,260.7c-1,0.3-0.9,2.7,0.3,2.6
			C173.9,263.2,174.7,260,172.5,260.7z M178,262c-0.2,0-1.2,1.2-0.3,1.3C178.7,263.4,178.6,262.1,178,262z M275.3,262
			c-0.1,0-0.8,0.8-0.8,0.8C274.9,264.4,277,262.2,275.3,262z M267.9,262.7c-1.1,0.2-1.6,3.1,0.3,2.6
			C269.5,264.9,269.1,262.5,267.9,262.7z M188.1,263c-0.8,0.2-0.4,1.5,0.3,1.3C189,264.1,189.3,262.7,188.1,263z M264.3,263
			c-0.8,0.2-0.5,1.5,0.3,1.3C265.4,264.1,265.1,262.8,264.3,263z M185.8,264l-0.5,0.5l0.2,0.2l0.5-0.2L185.8,264z M210.8,264
			c-0.8,0.2-0.5,1.8,0.3,1.6C211.9,265.4,211.6,263.7,210.8,264z M244.8,264.3c-0.8,0.2-0.5,1.5,0.3,1.3
			C245.9,265.4,245.6,264.1,244.8,264.3z M259.1,264.3c-0.4,0.1-0.2,0.9,0.3,0.6C259.8,264.8,259.6,264.1,259.1,264.3z M193.9,264.9
			c-0.4,0.1-0.2,0.9,0.3,0.6C194.6,265.4,194.4,264.8,193.9,264.9z M234.8,264.9c-1.1,0.7,1.1,1.5,1.1,0.5
			C235.9,265.2,235.1,264.7,234.8,264.9z M224.7,265.3c-0.7,0.1-0.3,1.2,0.3,1C225.6,266.1,225.9,265,224.7,265.3z M170.2,265.9
			c-0.1,0-0.9,0.8-0.8,1.1c0.6,4.7,36.1,5.9,41,6c16,0.4,34.4,0.5,50.3-0.6c3.1-0.2,22.7-2.5,23.2-5.4c0.4-2.5-4.5,0.6-5.4,0.8
			c-19.8,5.1-82.5,5.1-102.5,0.3C175,267.9,170.7,265.8,170.2,265.9z M293.5,269.8c-0.3-0.1-4.9,2.8-6.2,3.2
			c-10.5,3.5-27.6,3.9-38.9,4.2c-22.7,0.7-62,2-83-4.5c-1.6-0.5-5.2-3.6-6-1.1c13.4,7.3,31.4,7.2,46.6,7.6
			c14.9,0.4,77.5,1.2,87.3-6.8C294,271.7,295,270,293.5,269.8z M157.4,280.2c0.1,0.6-0.5,0.9-0.3,1.5c1.3,3.7,28.5,7.3,32.9,7.6
			c17.5,1.4,93.5,2.6,105.4-6.8c1-0.8,1.6-1.4,0.3-2.3c-15.8,7-35.6,7.6-52.9,8.1c-23.5,0.7-62.9,1.6-83.9-7.8
			C160,274.2,156.4,272.9,157.4,280.2z"/>
		<path class="st0" d="M222.8,100.5c7.4-0.4,14.8,0.5,22.1,1.9l4.9,1.9c-20.2-6.2-40.7-3.3-59.2,6.3
			C199.8,104.9,211.8,101.1,222.8,100.5z"/>
		<path class="st1" d="M296.4,122.2c1.3-0.6,2.1,1.4,1,1.9C296.1,124.7,295.3,122.7,296.4,122.2z"/>
		<path class="st2" d="M172,123.8c0,0,0.1-1.4,1-0.8C172.9,123.3,172,123.8,172,123.8z"/>
		<path class="st0" d="M172,123.8c-3,4.9-7.3,9.1-10.4,14.1c-7.7,12.5-11.4,26.1-12.8,40.7C149,159.4,157.9,137.1,172,123.8z"/>
		<path class="st3" d="M153.4,127.1l1.5,0.5C154.3,128.1,152.8,127.3,153.4,127.1z"/>
		<path class="st0" d="M296.4,165.7c7.8,22.3-6.1,53.4-24.3,69.1c-0.5-0.7,0-0.9,0.3-1.3c1.7-2.3,6.1-5.8,8.3-8.3
			C295.5,208.1,302.6,188.3,296.4,165.7z"/>
		<path class="st4" d="M323.3,177.7c1.2-0.2-0.1,1.3-0.5,0.5C322.8,178.1,323.3,177.7,323.3,177.7z"/>
		<path class="st0" d="M157.2,194.8l10.7,21.4C166.3,216.4,156.5,196.6,157.2,194.8z"/>
		<path class="st1" d="M132.3,198.1c1.4-0.9,2.5,1.2,1.6,1.9C133.3,200.5,131.2,198.8,132.3,198.1z"/>
		<path class="st5" d="M317.8,216.3c-1.7,3.1,0.8,0.6,1.3,3.6l-3.7-1.8L317.8,216.3z"/>
		<path class="st0" d="M165,226.3c10.1,13.9,25.2,22.4,41.4,27.4C190.3,250,173.6,240.7,165,226.3z"/>
		<path class="st1" d="M310.4,235.4c3.3-1.1,3.5,3.5,1.3,3.9C308.9,239.8,308.6,236,310.4,235.4z"/>
		<path class="st6" d="M276.6,239.3c1.2-0.3,0.9,2.2,0,1.9C276,241.1,276,239.5,276.6,239.3z"/>
		<path class="st7" d="M272.7,252.3c0.8,0,2.4,0.6,3.1,1.1c-0.1,1.1-16.2,3.8-18.2,3.2c2-0.6,4.5-2.2,6.3-2.8
			C264.8,253.7,272.3,252.3,272.7,252.3z"/>
		<path class="st8" d="M179.6,252.6c2.9-0.6,13.4,2.1,16.1,4.1c-1.6,0.4-17.9-1.6-17.5-3.2C178.6,253.3,179.4,252.7,179.6,252.6z"/>
		<path class="st9" d="M175.4,254.9c0.4-0.1,7,2.3,8.4,2.6c21.3,3.8,64,3.7,85.3,0c1.5-0.3,8.9-2.7,9.4-2.6c3.5,1-4.4,3.4-5.2,3.6
			c-18,4.8-70.6,4.5-89.2,1C183.4,259.3,170.5,256,175.4,254.9z"/>
		<path class="st10" d="M280.2,260.1c1.7-0.2,2,5.5-0.8,2.8C279.4,261.6,279.1,260.8,280.2,260.1z"/>
		<path class="st11" d="M172.5,260.7c2.2-0.7,1.4,2.5,0.3,2.6C171.6,263.4,171.5,261.1,172.5,260.7z"/>
		<path class="st12" d="M178,262c0.6,0.1,0.7,1.4-0.3,1.3C176.8,263.2,177.8,262,178,262z"/>
		<path class="st13" d="M275.3,262c1.6,0.2-0.5,2.4-0.8,0.8L275.3,262z"/>
		<path class="st11" d="M267.9,262.7c1.2-0.2,1.6,2.3,0.3,2.6C266.3,265.7,266.8,262.8,267.9,262.7z"/>
		<path class="st14" d="M188.1,263c1.2-0.3,0.9,1.2,0.3,1.3C187.6,264.5,187.3,263.2,188.1,263z"/>
		<path class="st15" d="M264.3,263c0.8-0.2,1.1,1.1,0.3,1.3C263.8,264.5,263.5,263.2,264.3,263z"/>
		<path class="st16" d="M185.8,264l0.2,0.5l-0.5,0.2l-0.2-0.2L185.8,264z"/>
		<path class="st17" d="M210.8,264c0.9-0.2,1.1,1.4,0.3,1.6C210.2,265.8,210,264.2,210.8,264z"/>
		<path class="st18" d="M244.8,264.3c0.8-0.2,1.1,1.1,0.3,1.3C244.4,265.8,244.1,264.4,244.8,264.3z"/>
		<path class="st19" d="M259.1,264.3c0.5-0.2,0.7,0.5,0.3,0.6C259,265.1,258.7,264.4,259.1,264.3z"/>
		<path class="st20" d="M193.9,264.9c0.5-0.2,0.7,0.5,0.3,0.6C193.8,265.8,193.5,265.1,193.9,264.9z"/>
		<path class="st21" d="M234.8,264.9c0.3-0.2,1.1,0.3,1.1,0.5C235.9,266.4,233.7,265.7,234.8,264.9z"/>
		<path class="st22" d="M224.7,265.3c1.2-0.2,0.9,0.8,0.3,1C224.4,266.4,224,265.4,224.7,265.3z"/>
		<path class="st23" d="M170.2,265.9c0.5-0.1,4.8,2,5.8,2.3c20,4.8,82.7,4.8,102.5-0.3c0.9-0.2,5.8-3.3,5.4-0.8
			c-0.5,2.9-20.1,5.1-23.2,5.4c-15.9,1.2-34.3,1.1-50.3,0.6c-4.9-0.1-40.4-1.3-41-6C169.3,266.7,170.1,265.9,170.2,265.9z"/>
		<path class="st24" d="M293.5,269.8c1.5,0.2,0.5,1.9-0.3,2.6c-9.8,8-72.4,7.2-87.3,6.8c-15.1-0.4-33.1-0.3-46.6-7.6
			c0.8-2.5,4.4,0.6,6,1.1c21,6.5,60.3,5.2,83,4.5c11.3-0.3,28.4-0.7,38.9-4.2C288.6,272.6,293.2,269.7,293.5,269.8z"/>
		<path class="st14" d="M159,280.5c-0.3-0.1-1.1,0.2-1.6-0.3C156.4,272.9,160,274.2,159,280.5z"/>
		<path class="st25" d="M159,280.5c21,9.4,60.4,8.5,83.9,7.8c17.3-0.5,37.1-1.1,52.9-8.1c1.3,0.9,0.7,1.5-0.3,2.3
			c-12,9.4-87.9,8.2-105.4,6.8c-4.5-0.4-31.7-3.9-32.9-7.6c-0.2-0.6,0.4-0.9,0.3-1.5C157.9,280.7,158.7,280.4,159,280.5z"/>
		<path class="st1" d="M118.9,135.2c3.3-1.1,3.5,3.5,1.3,3.9C117.4,139.6,117.1,135.8,118.9,135.2z"/>
	</g>
	<g>
		<path class="st0" d="M243.2,135.5c6.4,0.6,12.5,1.1,18.6,1.6c8.4,0.7,11.7,4.7,10.9,13.1c-2.3,26.1-4.5,52.2-6.8,78.3
			c-0.7,7.8-4.4,11.3-12.2,10.7c-15.1-1.2-30.2-2.6-45.3-4c-1-0.1-2-0.1-3-0.2c-4.4-0.3-7.5-2.5-9.3-6.6c-0.4-0.9-1.4-1.7-2.4-2.1
			c-4.1-1.4-6.6-4-7.4-8.3c-4.7-26.9-9.6-53.8-14.3-80.7c-1.1-6.6,2.3-11,9-12.2c15.7-2.8,31.4-5.6,47.1-8.4
			c7.3-1.3,11.8,1.7,13.3,9C242.1,129.1,242.6,132.1,243.2,135.5z M196.7,226.8c0.1,0.6,0.1,0.9,0.1,1.2c1.8,5.6,6.5,6.2,11.3,6.6
			c15.3,1.3,30.6,2.6,45.9,4.1c5.8,0.5,10.2-3,10.7-8.9c1-11.9,2.1-23.8,3.1-35.7c1.3-15.2,2.7-30.4,4-45.6
			c0.5-5.7-2.9-9.7-8.6-10.3c-2.4-0.2-4.8-0.5-7.2-0.7c-4.2-0.3-8.3-0.6-12.7-0.9c0.2,1.5,0.3,2.5,0.5,3.4
			c3.9,22,7.8,44.1,11.7,66.1c1,5.8-2.4,10.5-8.2,11.7c-1.9,0.4-3.8,0.7-5.6,1C226.8,221.5,211.9,224.1,196.7,226.8z M230.5,117.6
			c-3.7,0.6-8.2,1.4-12.8,2.2c-12.4,2.2-24.9,4.3-37.3,6.6c-5.5,1-8.4,5.4-7.4,10.8c3.3,18.9,6.6,37.8,9.9,56.6
			c1.4,7.9,2.8,15.8,4.2,23.7c1.1,6,5.3,9,11.3,7.9c16.3-2.8,32.6-5.7,48.9-8.6c5.4-1,8.4-5.4,7.4-10.8
			c-3.3-19.2-6.7-38.4-10.1-57.5c-1.3-7.5-2.6-15-3.9-22.5C239.7,120.7,236.3,117.5,230.5,117.6z"/>
		<path class="st0" d="M249.2,209.3c-0.7,0.5-1.7,1.5-2.7,1.7c-11.1,2.1-22.1,4-33.2,5.9c-5.5,1-11.1,1.9-16.6,3
			c-2.3,0.4-3.3-0.3-3.7-2.6c-4.8-27.2-9.6-54.4-14.4-81.5c-0.4-2.1,0.4-3.2,2.5-3.6c16.8-2.9,33.6-5.8,50.4-8.8
			c2.6-0.5,2.8,1.2,3.1,2.9c1.8,9.9,3.5,19.8,5.2,29.7c3,17.1,6,34.2,9.1,51.3C249,207.7,249,208,249.2,209.3z M230.9,187.8
			c-11,1.2-19.3-2.9-22-11.7c-4.2-13.5,2.2-21.5,15.3-25.6c-10.6-1.9-19.6,2.6-23.7,11.5c-4,8.6-1.7,18.7,5.6,24.8
			C213.1,192.6,223.4,193.1,230.9,187.8z M219.8,163.9c0.9,4.5-1.5,6.5-5.4,7.8c4.7-0.9,6.6,1.7,7.9,5.5c-0.6-4.2,0.7-6.8,5.1-7.9
			C223.1,169.7,220.8,167.8,219.8,163.9z M222.6,140.2c1-1.5,2-3,3-4.3c-1.5-1.1-3-2-4.2-2.9c-1,1.4-2,2.8-3,4.2
			C219.8,138.2,221.2,139.2,222.6,140.2z M195.2,144.5c-0.7,1-1.6,2.4-2.3,3.4c1,0.7,2.3,1.6,3.4,2.4c0.7-1,1.7-2.4,2.4-3.4
			C197.6,146.1,196.2,145.2,195.2,144.5z M236.3,201.8c1-0.7,1.8-1.3,2.5-1.8c-0.5-0.9-1-1.8-1.4-2.5c-0.8,0.5-1.7,1.1-2.5,1.6
			C235.3,200,235.8,200.9,236.3,201.8z"/>
	</g>
	<path class="st26" d="M226.4,88.6V42.7 M260.1,94.7c4.1-10.9,8.2-21.7,12.2-32.6 M308.2,90.7c3.5-3.9,6.9-7.8,10.4-11.8
		 M288.9,112.7c5.2-5.9,10.3-11.7,15.5-17.6 M309.5,139.9c10.3-5.4,20.6-10.8,30.9-16.2 M350.4,169.5c4.3-0.5,8.7-1,13-1.4
		 M319.2,172.9c8.5-0.9,17.1-1.9,25.6-2.8 M342.2,214.1c5.8,1.6,11.6,3.1,17.4,4.7 M316.7,207.3c6.8,1.8,13.7,3.7,20.5,5.5
		 M302.3,238.4c10.8,7.9,21.7,15.9,32.5,23.8 M181.6,62.7c-1.3-3.4-2.6-6.8-3.8-10.2 M193.6,94.7c-3.3-8.8-6.6-17.5-9.9-26.3
		 M164.8,112.7c-7.4-8.4-14.7-16.7-22.1-25.1 M118.4,126.5c-4.6-2.4-9.2-4.8-13.8-7.2 M144.1,139.9c-6.7-3.5-13.4-7-20-10.5
		 M134.4,172.9c-12.7-1.4-25.4-2.8-38.1-4.2 M110.8,214.3c-5.6,1.5-11.2,3-16.8,4.5 M136.9,207.3c-6.8,1.8-13.7,3.7-20.5,5.5
		 M125.9,257c-3.5,2.6-7.1,5.2-10.6,7.8 M151.4,238.4c-6.8,5-13.6,10-20.4,14.9"/>
	<path class="st0" d="M197,227.8c0,5.2-3.2,9.4-7.2,9.4c4,0,7.2,4.2,7.2,9.4c0-5.2,3.2-9.4,7.2-9.4C200.2,237.2,197,233,197,227.8
		L197,227.8z"/>
	<path class="st0" d="M170.9,200.7c-0.3-1.4-0.5-2.5-0.8-3.8c-5.7,2-11.4,4.1-17.1,6.1c0-0.2,0-0.4-0.1-0.6c5.7-2,11.4-4.1,17.1-6.1
		c-0.2-1.4-0.3-2.5-0.4-3.8c-4-0.2-8.1-0.4-12.2-0.5c0-0.2,0-0.4,0-0.6c4-0.2,8.1,0.3,12.2,0.3c0-1.5,0-2.8,0-4.3
		c-2.9-1.2-5.8-2.3-8.7-3.4c0-0.2,0.1-0.4,0.1-0.7c2.9,1.1,5.8,2.2,8.6,3.3c0.1-0.2,0.1-0.2,0.1-0.3c0.6-3.9,0.6-3.9-1.5-5.5
		c-2.8-2-5.6-4-8.4-6c-0.3-0.2-0.7-0.5-1-0.8c0.1-0.2,0.1-0.4,0.2-0.7c3.8,2.7,7.5,5.3,11.4,8.1c0.3-1.3,0.6-2.7,1-4.1
		c-2.4-3-4.9-5.9-7.3-8.8c0-0.1,0.1-0.1,0.1-0.2c2.4,2.8,4.9,5.6,7.4,8.4c0.5-1.4,0.9-2.7,1.4-4c-1.2-1.9-2.5-3.8-3.7-5.6
		c0.1-0.2,0.2-0.3,0.2-0.5c1.2,1.8,2.4,3.6,3.7,5.5c0.4-0.9,0.7-1.7,1.1-2.5c0.1,0.1,0.2,0.2,0.2,0.3c-0.1,0.3-0.2,0.7-0.3,1
		c-1.8,4.3-3.2,8.8-3.8,14.1c-1,8.9,0.7,16.5,3.9,23.2c1.3,2.8,3,5.1,4.5,7.7c0.3,0.5,0.6,0.9,0.7,1c-0.4,0.8-0.8,1.3-1,2.1
		c-0.6,1.8-1.1,3.8-1.6,5.7c-0.1-0.1-0.2-0.2-0.3-0.3c0.2-0.8,0.4-1.7,0.6-2.5c0.2-0.6,0.3-1.2,0.5-1.8c1-3.7,1-3.7-1.1-6.2
		c-1.6,4.3-3.1,8.7-4.7,13c-0.1-0.1-0.2-0.2-0.3-0.4c1.5-4.4,3.1-8.8,4.7-13.3c-0.6-1.1-1.2-2.1-1.8-3.2c-2.9,5.2-5.7,10.3-8.5,15.4
		c-0.1-0.2-0.2-0.3-0.3-0.5c0.2-0.4,0.4-0.9,0.7-1.3c2.4-4.3,4.8-8.7,7.2-13c0.6-1,0.6-1.7,0.1-2.7c-0.3-0.6-0.6-1.4-1-2.3
		c-2.4,3.1-4.8,6.1-7.2,9.2c-0.1-0.2-0.2-0.4-0.2-0.6c2.4-3.1,4.8-6.1,7.2-9.3c-0.4-1.2-0.7-2.3-1.1-3.5c-3.8,3-7.4,6-11.1,8.9
		c-0.1-0.2-0.1-0.4-0.2-0.6C163.5,206.7,167.2,203.7,170.9,200.7z"/>
	<path class="st0" d="M282.4,188.4c0,1.5,0,2.6,0,4.1c5.8,1,11.6,2,17.3,3c0,0.2,0,0.4-0.1,0.6c-5.7-1-11.5-2-17.3-3
		c-0.1,1.4-0.2,2.6-0.3,3.9c3.8,2.3,7.6,4.5,11.4,6.8c0,0.2-0.1,0.4-0.1,0.5c-3.9-1.9-7.6-4.5-11.4-6.6c-0.3,1.4-0.6,2.7-0.9,4.1
		c2.5,2.6,5,5.2,7.5,7.8c-0.1,0.2-0.1,0.4-0.2,0.6c-2.5-2.5-5-5.1-7.4-7.5c-0.1,0.1-0.2,0.1-0.2,0.2c-1.3,3.4-1.4,3.4,0.3,6
		c2.2,3.4,4.5,6.7,6.7,10c0.3,0.4,0.5,0.8,0.8,1.3c-0.1,0.2-0.2,0.4-0.3,0.5c-3-4.5-6-9-9.1-13.6c-0.6,1.1-1.1,2.2-1.7,3.4
		c1.7,4.1,3.4,8.1,5.1,12.2c0,0.1-0.1,0.1-0.1,0.2c-1.8-3.9-3.5-7.8-5.3-11.8c-0.7,1.1-1.4,2.1-2.1,3.1c0.8,2.5,1.6,4.9,2.4,7.3
		c-0.1,0.1-0.2,0.2-0.3,0.4c-0.8-2.3-1.6-4.7-2.4-7.1c-0.5,0.6-1,1.2-1.5,1.8c-0.1-0.1-0.1-0.3-0.2-0.4c0.2-0.3,0.3-0.6,0.5-0.8
		c2.5-3.2,4.7-6.8,6.3-11.5c2.7-8,2.6-16.2,0.9-24.2c-0.7-3.4-1.8-6.5-2.8-9.7c-0.2-0.6-0.4-1.1-0.4-1.3c0.5-0.5,1-0.8,1.4-1.4
		c0.9-1.5,1.8-3,2.6-4.6c0.1,0.1,0.2,0.3,0.2,0.4c-0.4,0.7-0.7,1.4-1.1,2c-0.3,0.5-0.6,1-0.8,1.5c-1.7,3-1.7,3-0.2,6.5
		c2.3-3.4,4.6-6.7,7-10.1c0.1,0.2,0.2,0.3,0.2,0.5c-2.3,3.4-4.6,6.8-7,10.3c0.4,1.3,0.7,2.7,1.1,4c3.7-3.5,7.4-6.9,11-10.3
		c0.1,0.2,0.1,0.4,0.2,0.6c-0.3,0.3-0.6,0.6-0.9,0.9c-3.1,2.9-6.2,5.9-9.3,8.7c-0.7,0.6-0.9,1.3-0.6,2.5c0.2,0.8,0.3,1.7,0.4,2.7
		c2.9-1.7,5.7-3.4,8.6-5c0,0.2,0.1,0.4,0.1,0.7c-2.8,1.7-5.7,3.4-8.6,5.1c0.1,1.3,0.2,2.6,0.3,3.9c4.1-0.9,8.2-1.9,12.2-2.8
		c0,0.2,0,0.5,0,0.7C290.6,186.5,286.6,187.5,282.4,188.4z"/>
	<g>
		<path class="st0" d="M281.3,152.8c0.3-0.1,2.5,2.3,0.6,2.6C279.3,155.8,280.3,153,281.3,152.8z"/>
		<path class="st0" d="M262.1,157.9c2.2,4.5,3.8,8.4,9.3,9.3c-4.9,2-7.9,4.2-8.6,9.9c-1.8-4.7-3.1-8.1-8.6-9.3
			C258.9,165.4,261.5,163.5,262.1,157.9z"/>
		<path class="st0" d="M290.9,178.3c2.9-0.8,1.9,2.5,0.6,2.6C290.2,180.9,289.6,178.7,290.9,178.3z"/>
		<path class="st1" d="M302.8,201.5c1.8,5.9,4.7,10.4,11.2,11.2c-6,3.2-10,5.6-10.5,13.1c-2.4-6.9-4.7-10.1-11.8-12.5
			C298.7,211.5,300.7,208.1,302.8,201.5z"/>
		<path class="st0" d="M263.4,214.7c2.4-0.6,1.8,2.3,0.6,2.6C262.5,217.7,261.9,215.1,263.4,214.7z"/>
	</g>
	<path class="st27" d="M230.9,187.8c-11,1.2-19.3-2.9-22-11.7c-4.2-13.5,2.2-21.5,15.3-25.6c-10.6-1.9-19.6,2.6-23.7,11.5
		c-4,8.6-1.7,18.7,5.6,24.8C213.1,192.6,223.4,193.1,230.9,187.8z"/>
</g>
</svg>
